<svg width="18" height="20" viewBox="0 0 18 20" fill="none" xmlns="http://www.w3.org/2000/svg">
<path d="M3.34375 10.2031C3.34375 10.1484 3.36654 10.1029 3.41211 10.0664C3.45768 10.0299 3.50781 10.0117 3.5625 10.0117H5.12109C5.17578 10.0117 5.22591 10.0299 5.27148 10.0664C5.31706 10.1029 5.33984 10.1484 5.33984 10.2031V11.7891C5.33984 11.8438 5.31706 11.8893 5.27148 11.9258C5.22591 11.9622 5.17578 11.9805 5.12109 11.9805H3.5625C3.50781 11.9805 3.45768 11.9622 3.41211 11.9258C3.36654 11.8893 3.34375 11.8438 3.34375 11.7891V10.2031ZM3.5625 14.25C3.50781 14.25 3.45768 14.2682 3.41211 14.3047C3.36654 14.3411 3.34375 14.3867 3.34375 14.4414V16.0273C3.34375 16.082 3.36654 16.1276 3.41211 16.1641C3.45768 16.2005 3.50781 16.2188 3.5625 16.2188H5.12109C5.17578 16.2188 5.22591 16.2005 5.27148 16.1641C5.31706 16.1276 5.33984 16.082 5.33984 16.0273V14.4414C5.33984 14.3867 5.31706 14.3411 5.27148 14.3047C5.22591 14.2682 5.17578 14.25 5.12109 14.25H3.5625ZM8.04688 10.2031C8.04688 10.1484 8.0651 10.1029 8.10156 10.0664C8.13802 10.0299 8.18359 10.0117 8.23828 10.0117H9.82422C9.87891 10.0117 9.92448 10.0299 9.96094 10.0664C9.9974 10.1029 10.0156 10.1484 10.0156 10.2031V11.7891C10.0156 11.8438 9.9974 11.8893 9.96094 11.9258C9.92448 11.9622 9.87891 11.9805 9.82422 11.9805H8.23828C8.18359 11.9805 8.13802 11.9622 8.10156 11.9258C8.0651 11.8893 8.04688 11.8438 8.04688 11.7891V10.2031ZM8.23828 14.25C8.18359 14.25 8.13802 14.2682 8.10156 14.3047C8.0651 14.3411 8.04688 14.3867 8.04688 14.4414V16.0273C8.04688 16.082 8.0651 16.1276 8.10156 16.1641C8.13802 16.2005 8.18359 16.2188 8.23828 16.2188H9.82422C9.87891 16.2188 9.92448 16.2005 9.96094 16.1641C9.9974 16.1276 10.0156 16.082 10.0156 16.0273V14.4414C10.0156 14.3867 9.9974 14.3411 9.96094 14.3047C9.92448 14.2682 9.87891 14.25 9.82422 14.25H8.23828ZM12.668 10.2031C12.668 10.1484 12.6862 10.1029 12.7227 10.0664C12.7591 10.0299 12.8047 10.0117 12.8594 10.0117H14.4453C14.5 10.0117 14.5456 10.0299 14.582 10.0664C14.6185 10.1029 14.6367 10.1484 14.6367 10.2031V11.7891C14.6367 11.8438 14.6185 11.8893 14.582 11.9258C14.5456 11.9622 14.5 11.9805 14.4453 11.9805H12.8594C12.8047 11.9805 12.7591 11.9622 12.7227 11.9258C12.6862 11.8893 12.668 11.8438 12.668 11.7891V10.2031ZM12.8594 14.25C12.8047 14.25 12.7591 14.2682 12.7227 14.3047C12.6862 14.3411 12.668 14.3867 12.668 14.4414V16.0273C12.668 16.082 12.6862 16.1276 12.7227 16.1641C12.7591 16.2005 12.8047 16.2188 12.8594 16.2188H14.4453C14.5 16.2188 14.5456 16.2005 14.582 16.1641C14.6185 16.1276 14.6367 16.082 14.6367 16.0273V14.4414C14.6367 14.3867 14.6185 14.3411 14.582 14.3047C14.5456 14.2682 14.5 14.25 14.4453 14.25H12.8594ZM6.05078 2.38281V1.61719C6.05078 1.41667 5.97786 1.24805 5.83203 1.11133C5.6862 0.974609 5.52214 0.90625 5.33984 0.90625H5.25781C5.07552 0.90625 4.91146 0.974609 4.76562 1.11133C4.61979 1.24805 4.54688 1.41667 4.54688 1.61719V2.38281H2.57812C2.03125 2.38281 1.56641 2.57878 1.18359 2.9707C0.800781 3.36263 0.609375 3.83203 0.609375 4.37891V17.2031C0.609375 17.75 0.800781 18.2194 1.18359 18.6113C1.56641 19.0033 2.03125 19.1992 2.57812 19.1992H15.4297C15.9766 19.1992 16.4414 19.0033 16.8242 18.6113C17.207 18.2194 17.3984 17.75 17.3984 17.2031V4.37891C17.3984 3.83203 17.207 3.36263 16.8242 2.9707C16.4414 2.57878 15.9766 2.38281 15.4297 2.38281H13.4609V1.61719C13.4609 1.41667 13.388 1.24805 13.2422 1.11133C13.0964 0.974609 12.9323 0.90625 12.75 0.90625H12.668C12.4857 0.90625 12.3216 0.974609 12.1758 1.11133C12.0299 1.24805 11.957 1.41667 11.957 1.61719V2.38281H6.05078ZM2.57812 3.85938H4.54688V4.65234C4.54688 4.85286 4.61979 5.02148 4.76562 5.1582C4.91146 5.29492 5.07552 5.36328 5.25781 5.36328H5.33984C5.52214 5.36328 5.6862 5.29492 5.83203 5.1582C5.97786 5.02148 6.05078 4.85286 6.05078 4.65234V3.85938H11.957V4.65234C11.957 4.85286 12.0299 5.02148 12.1758 5.1582C12.3216 5.29492 12.4857 5.36328 12.668 5.36328H12.75C12.9323 5.36328 13.0964 5.29492 13.2422 5.1582C13.388 5.02148 13.4609 4.85286 13.4609 4.65234V3.85938H15.4297C15.5573 3.85938 15.6712 3.90951 15.7715 4.00977C15.8717 4.11003 15.9219 4.23307 15.9219 4.37891V6.34766H2.08594V4.37891C2.08594 4.23307 2.13607 4.11458 2.23633 4.02344C2.33659 3.93229 2.45052 3.88672 2.57812 3.88672V3.85938ZM15.9219 7.82422V17.2031C15.9219 17.349 15.8717 17.4674 15.7715 17.5586C15.6712 17.6497 15.5573 17.6953 15.4297 17.6953H2.57812C2.45052 17.6953 2.33659 17.6497 2.23633 17.5586C2.13607 17.4674 2.08594 17.349 2.08594 17.2031V7.82422H15.9219Z" fill="black"/>
</svg>
