<svg width="32" height="23" viewBox="0 0 32 23" fill="none" xmlns="http://www.w3.org/2000/svg">
<path d="M0 0H5.20838V4.77945L3.82969 14.7366H1.37869L0 4.77945V0ZM2.60419 22.1816C1.13359 22.1816 0 21.1705 0 19.5774C0 18.0149 1.13359 16.9732 2.60419 16.9732C4.04415 16.9732 5.20838 18.0149 5.20838 19.5774C5.20838 21.1705 4.04415 22.1816 2.60419 22.1816Z" fill="#EE3F3F"/>
<path d="M13.2109 0H18.4193V4.77945L17.0406 14.7366H14.5896L13.2109 4.77945V0ZM15.8151 22.1816C14.3445 22.1816 13.2109 21.1705 13.2109 19.5774C13.2109 18.0149 14.3445 16.9732 15.8151 16.9732C17.2551 16.9732 18.4193 18.0149 18.4193 19.5774C18.4193 21.1705 17.2551 22.1816 15.8151 22.1816Z" fill="#EE3F3F"/>
<path d="M26.4219 0H31.6303V4.77945L30.2516 14.7366H27.8006L26.4219 4.77945V0ZM29.0261 22.1816C27.5555 22.1816 26.4219 21.1705 26.4219 19.5774C26.4219 18.0149 27.5555 16.9732 29.0261 16.9732C30.466 16.9732 31.6303 18.0149 31.6303 19.5774C31.6303 21.1705 30.466 22.1816 29.0261 22.1816Z" fill="#EE3F3F"/>
</svg>
