<svg width="31" height="24" viewBox="0 0 31 24" fill="none" xmlns="http://www.w3.org/2000/svg">
<g clip-path="url(#clip0_81_1534)">
<g clip-path="url(#clip1_81_1534)">
<rect width="30.1722" height="22.632" transform="translate(0.480469 0.613525)" fill="black"/>
<g clip-path="url(#clip2_81_1534)">
<g clip-path="url(#clip3_81_1534)">
<path fill-rule="evenodd" clip-rule="evenodd" d="M0.480469 0.614685H43.4763V2.35541H0.480469V0.614685ZM0.480469 4.09613H43.4763V5.83685H0.480469V4.09613ZM0.480469 7.57757H43.4763V9.31829H0.480469V7.57757ZM0.480469 11.059H43.4763V12.7997H0.480469V11.059ZM0.480469 14.5404H43.4763V16.2812H0.480469V14.5404ZM0.480469 18.0219H43.4763V19.7626H0.480469V18.0219ZM0.480469 21.5033H43.4763V23.244H0.480469V21.5033Z" fill="#BD3D44"/>
<path fill-rule="evenodd" clip-rule="evenodd" d="M0.480469 2.35553H43.4763V4.09625H0.480469V2.35553ZM0.480469 5.83697H43.4763V7.57769H0.480469V5.83697ZM0.480469 9.31841H43.4763V11.0591H0.480469V9.31841ZM0.480469 12.7999H43.4763V14.5406H0.480469V12.7999ZM0.480469 16.2813H43.4763V18.022H0.480469V16.2813ZM0.480469 19.7627H43.4763V21.5034H0.480469V19.7627Z" fill="white"/>
<path fill-rule="evenodd" clip-rule="evenodd" d="M0.480469 0.614685H17.6786V12.7995H0.480469V0.614685Z" fill="#192F5D"/>
<path fill-rule="evenodd" clip-rule="evenodd" d="M1.91165 1.13579L2.06811 1.61736H2.57453L2.16482 1.91503L2.32132 2.39661L1.91161 2.09898L1.50199 2.39661L1.65845 1.91503L1.24878 1.61736H1.75515L1.91165 1.13579ZM4.778 1.13579L4.9345 1.61736H5.44092L5.0312 1.91503L5.18771 2.39661L4.778 2.09898L4.36837 2.39661L4.52483 1.91503L4.11517 1.61736H4.62154L4.778 1.13579ZM7.64447 1.13579L7.80093 1.61736H8.30735L7.89763 1.91503L8.05414 2.39661L7.64447 2.09898L7.23481 2.39661L7.39126 1.91503L6.9816 1.61736H7.48801L7.64447 1.13579ZM10.5108 1.13579L10.6672 1.61736H11.1736L10.7639 1.91503L10.9204 2.39661L10.5108 2.09898L10.1011 2.39661L10.2576 1.91503L9.84785 1.61736H10.3543L10.5108 1.13579ZM13.3772 1.13579L13.5337 1.61736H14.0401L13.6304 1.91503L13.7869 2.39661L13.3772 2.09898L12.9675 2.39661L13.124 1.91503L12.7143 1.61736H13.2207L13.3772 1.13579ZM16.2436 1.13579L16.4001 1.61736H16.9065L16.4968 1.91503L16.6533 2.39661L16.2436 2.09898L15.8339 2.39661L15.9905 1.91503L15.5808 1.61736H16.0872L16.2436 1.13579ZM3.34489 2.35431L3.50135 2.83589H4.00777L3.59805 3.13352L3.7546 3.61514L3.34489 3.31751L2.93522 3.61514L3.09168 3.13352L2.68202 2.83589H3.18843L3.34489 2.35431ZM6.21119 2.35431L6.36765 2.83589H6.87402L6.46435 3.13352L6.62081 3.61514L6.21119 3.31751L5.80148 3.61514L5.95798 3.13352L5.54827 2.83589H6.05469L6.21119 2.35431ZM9.07762 2.35431L9.23408 2.83589H9.7405L9.33078 3.13352L9.48729 3.61514L9.07758 3.31751L8.66795 3.61514L8.82441 3.13352L8.41475 2.83589H8.92112L9.07762 2.35431ZM11.9441 2.35431L12.1005 2.83589H12.6069L12.1972 3.13352L12.3537 3.61514L11.9441 3.31751L11.5343 3.61514L11.6909 3.13352L11.2812 2.83589H11.7876L11.9441 2.35431ZM14.8104 2.35431L14.9668 2.83589H15.4732L15.0635 3.13352L15.22 3.61514L14.8104 3.31751L14.4006 3.61514L14.5571 3.13352L14.1474 2.83589H14.6538L14.8104 2.35431ZM1.91165 3.5728L2.06811 4.05437H2.57453L2.16482 4.35204L2.32132 4.83362L1.91161 4.53599L1.50199 4.83362L1.65845 4.35204L1.24878 4.05437H1.75515L1.91165 3.5728ZM4.778 3.5728L4.9345 4.05437H5.44092L5.0312 4.35204L5.18771 4.83362L4.778 4.53599L4.36837 4.83362L4.52483 4.35204L4.11517 4.05437H4.62154L4.778 3.5728ZM7.64447 3.5728L7.80093 4.05437H8.30735L7.89763 4.35204L8.05414 4.83362L7.64447 4.53599L7.23481 4.83362L7.39126 4.35204L6.9816 4.05437H7.48801L7.64447 3.5728ZM10.5108 3.5728L10.6672 4.05437H11.1736L10.7639 4.35204L10.9204 4.83362L10.5108 4.53599L10.1011 4.83362L10.2576 4.35204L9.84785 4.05437H10.3543L10.5108 3.5728ZM13.3772 3.5728L13.5337 4.05437H14.0401L13.6304 4.35204L13.7869 4.83362L13.3772 4.53599L12.9675 4.83362L13.124 4.35204L12.7143 4.05437H13.2207L13.3772 3.5728ZM16.2436 3.5728L16.4001 4.05437H16.9065L16.4968 4.35204L16.6533 4.83362L16.2436 4.53599L15.8339 4.83362L15.9905 4.35204L15.5808 4.05437H16.0872L16.2436 3.5728ZM3.34489 4.79128L3.50135 5.2729H4.00777L3.59805 5.57052L3.7546 6.05215L3.34489 5.75452L2.93522 6.05215L3.09168 5.57052L2.68202 5.2729H3.18843L3.34489 4.79128ZM6.21119 4.79128L6.36765 5.2729H6.87402L6.46435 5.57052L6.62081 6.05215L6.21119 5.75452L5.80148 6.05215L5.95798 5.57052L5.54827 5.2729H6.05469L6.21119 4.79128ZM9.07762 4.79128L9.23408 5.2729H9.7405L9.33078 5.57052L9.48729 6.05215L9.07758 5.75452L8.66795 6.05215L8.82441 5.57052L8.41475 5.2729H8.92112L9.07762 4.79128ZM11.9441 4.79128L12.1005 5.2729H12.6069L12.1972 5.57052L12.3537 6.05215L11.9441 5.75452L11.5343 6.05215L11.6909 5.57052L11.2812 5.2729H11.7876L11.9441 4.79128ZM14.8104 4.79128L14.9668 5.2729H15.4732L15.0635 5.57052L15.22 6.05215L14.8104 5.75452L14.4006 6.05215L14.5571 5.57052L14.1474 5.2729H14.6538L14.8104 4.79128ZM1.91165 6.0098L2.06811 6.49138H2.57453L2.16482 6.78905L2.32132 7.27063L1.91161 6.973L1.50199 7.27063L1.65845 6.78905L1.24878 6.49138H1.75515L1.91165 6.0098ZM4.778 6.0098L4.9345 6.49138H5.44092L5.0312 6.78905L5.18771 7.27063L4.778 6.973L4.36837 7.27063L4.52483 6.78905L4.11517 6.49138H4.62154L4.778 6.0098ZM7.64447 6.0098L7.80093 6.49138H8.30735L7.89763 6.78905L8.05414 7.27063L7.64447 6.973L7.23481 7.27063L7.39126 6.78905L6.9816 6.49138H7.48801L7.64447 6.0098ZM10.5108 6.0098L10.6672 6.49138H11.1736L10.7639 6.78905L10.9204 7.27063L10.5108 6.973L10.1011 7.27063L10.2576 6.78905L9.84785 6.49138H10.3543L10.5108 6.0098ZM13.3772 6.0098L13.5337 6.49138H14.0401L13.6304 6.78905L13.7869 7.27063L13.3772 6.973L12.9675 7.27063L13.124 6.78905L12.7143 6.49138H13.2207L13.3772 6.0098ZM16.2436 6.0098L16.4001 6.49138H16.9065L16.4968 6.78905L16.6533 7.27063L16.2436 6.973L15.8339 7.27063L15.9905 6.78905L15.5808 6.49138H16.0872L16.2436 6.0098ZM3.34489 7.22829L3.50135 7.70991H4.00777L3.59805 8.00753L3.7546 8.48915L3.34489 8.19153L2.93522 8.48915L3.09168 8.00753L2.68202 7.70991H3.18843L3.34489 7.22829ZM6.21119 7.22829L6.36765 7.70991H6.87402L6.46435 8.00753L6.62081 8.48915L6.21119 8.19153L5.80148 8.48915L5.95798 8.00753L5.54827 7.70991H6.05469L6.21119 7.22829ZM9.07762 7.22829L9.23408 7.70991H9.7405L9.33078 8.00753L9.48729 8.48915L9.07758 8.19153L8.66795 8.48915L8.82441 8.00753L8.41475 7.70991H8.92112L9.07762 7.22829ZM11.9441 7.22829L12.1005 7.70991H12.6069L12.1972 8.00753L12.3537 8.48915L11.9441 8.19153L11.5343 8.48915L11.6909 8.00753L11.2812 7.70991H11.7876L11.9441 7.22829ZM14.8104 7.22829L14.9668 7.70991H15.4732L15.0635 8.00753L15.22 8.48915L14.8104 8.19153L14.4006 8.48915L14.5571 8.00753L14.1474 7.70991H14.6538L14.8104 7.22829Z" fill="white"/>
<path fill-rule="evenodd" clip-rule="evenodd" d="M1.91165 8.44641L2.06811 8.92799H2.57453L2.16482 9.22566L2.32132 9.70723L1.91161 9.40961L1.50199 9.70723L1.65845 9.22566L1.24878 8.92799H1.75515L1.91165 8.44641ZM4.778 8.44641L4.9345 8.92799H5.44092L5.0312 9.22566L5.18771 9.70723L4.778 9.40961L4.36837 9.70723L4.52483 9.22566L4.11517 8.92799H4.62154L4.778 8.44641ZM7.64447 8.44641L7.80093 8.92799H8.30735L7.89763 9.22566L8.05414 9.70723L7.64447 9.40961L7.23481 9.70723L7.39126 9.22566L6.9816 8.92799H7.48801L7.64447 8.44641ZM10.5108 8.44641L10.6672 8.92799H11.1736L10.7639 9.22566L10.9204 9.70723L10.5108 9.40961L10.1011 9.70723L10.2576 9.22566L9.84785 8.92799H10.3543L10.5108 8.44641ZM13.3772 8.44641L13.5337 8.92799H14.0401L13.6304 9.22566L13.7869 9.70723L13.3772 9.40961L12.9675 9.70723L13.124 9.22566L12.7143 8.92799H13.2207L13.3772 8.44641ZM16.2436 8.44641L16.4001 8.92799H16.9065L16.4968 9.22566L16.6533 9.70723L16.2436 9.40961L15.8339 9.70723L15.9905 9.22566L15.5808 8.92799H16.0872L16.2436 8.44641ZM3.34489 9.66489L3.50135 10.1465H4.00777L3.59805 10.4441L3.7546 10.9258L3.34489 10.6281L2.93522 10.9258L3.09168 10.4441L2.68202 10.1465H3.18843L3.34489 9.66489ZM6.21119 9.66489L6.36765 10.1465H6.87402L6.46435 10.4441L6.62081 10.9258L6.21119 10.6281L5.80148 10.9258L5.95798 10.4441L5.54827 10.1465H6.05469L6.21119 9.66489ZM9.07762 9.66489L9.23408 10.1465H9.7405L9.33078 10.4441L9.48729 10.9258L9.07758 10.6281L8.66795 10.9258L8.82441 10.4441L8.41475 10.1465H8.92112L9.07762 9.66489ZM11.9441 9.66489L12.1005 10.1465H12.6069L12.1972 10.4441L12.3537 10.9258L11.9441 10.6281L11.5343 10.9258L11.6909 10.4441L11.2812 10.1465H11.7876L11.9441 9.66489ZM14.8104 9.66489L14.9668 10.1465H15.4732L15.0635 10.4441L15.22 10.9258L14.8104 10.6281L14.4006 10.9258L14.5571 10.4441L14.1474 10.1465H14.6538L14.8104 9.66489Z" fill="white"/>
<path fill-rule="evenodd" clip-rule="evenodd" d="M1.91165 10.884L2.06811 11.3656H2.57453L2.16482 11.6633L2.32132 12.1448L1.91161 11.8472L1.50199 12.1448L1.65845 11.6633L1.24878 11.3656H1.75515L1.91165 10.884ZM4.778 10.884L4.9345 11.3656H5.44092L5.0312 11.6633L5.18771 12.1448L4.778 11.8472L4.36837 12.1448L4.52483 11.6633L4.11517 11.3656H4.62154L4.778 10.884ZM7.64447 10.884L7.80093 11.3656H8.30735L7.89763 11.6633L8.05414 12.1448L7.64447 11.8472L7.23481 12.1448L7.39126 11.6633L6.9816 11.3656H7.48801L7.64447 10.884ZM10.5108 10.884L10.6672 11.3656H11.1736L10.7639 11.6633L10.9204 12.1448L10.5108 11.8472L10.1011 12.1448L10.2576 11.6633L9.84785 11.3656H10.3543L10.5108 10.884ZM13.3772 10.884L13.5337 11.3656H14.0401L13.6304 11.6633L13.7869 12.1448L13.3772 11.8472L12.9675 12.1448L13.124 11.6633L12.7143 11.3656H13.2207L13.3772 10.884ZM16.2436 10.884L16.4001 11.3656H16.9065L16.4968 11.6633L16.6533 12.1448L16.2436 11.8472L15.8339 12.1448L15.9905 11.6633L15.5808 11.3656H16.0872L16.2436 10.884Z" fill="white"/>
</g>
</g>
</g>
</g>
<defs>
<clipPath id="clip0_81_1534">
<rect x="0.480469" y="0.613525" width="30.5226" height="22.6094" rx="3.3914" fill="white"/>
</clipPath>
<clipPath id="clip1_81_1534">
<rect width="30.1722" height="22.632" fill="white" transform="translate(0.480469 0.613525)"/>
</clipPath>
<clipPath id="clip2_81_1534">
<rect width="30.1722" height="22.632" fill="white" transform="translate(0.480469 0.613525)"/>
</clipPath>
<clipPath id="clip3_81_1534">
<rect width="30.1722" height="22.6291" fill="white" transform="translate(0.480469 0.614594)"/>
</clipPath>
</defs>
</svg>
